name Walk7.mot
datacolumns 19
datarows 27
range 2.52000000 2.65000000
endheader

                time	   L_ground_force_vx	   L_ground_force_vy	   L_ground_force_vz	   L_ground_force_px	   L_ground_force_py	   L_ground_force_pz	   R_ground_force_vx	   R_ground_force_vy	   R_ground_force_vz	   R_ground_force_px	   R_ground_force_py	   R_ground_force_pz	   L_ground_torque_x	   L_ground_torque_y	   L_ground_torque_z	   R_ground_torque_x	   R_ground_torque_y	   R_ground_torque_z	
          2.52000000	         -0.00000000	         -0.00000000	          0.00000000	         -0.00000000	          0.00000000	         -0.00000000	         10.37295409	         38.67740926	         12.78194349	          0.44487879	          0.00000000	          0.09404847	          0.00000000	          0.00000000	          0.00000000	          0.00000000	         -2.19464393	          0.00000000	
          2.52500000	         -0.00000000	         -0.00000000	          0.00000000	         -0.00000000	          0.00000000	         -0.00000000	          6.61956053	         23.76293607	          9.90562703	          0.37743122	          0.00000000	          0.08012777	          0.00000000	         -0.00000000	          0.00000000	          0.00000000	         -1.41605544	          0.00000000	
          2.53000000	         -0.00000000	         -0.00000000	          0.00000000	          0.00000000	          0.00000000	         -0.00000000	          3.68844771	         12.35932288	          7.28811265	          0.30569639	          0.00000000	          0.06516908	          0.00000000	         -0.00000000	          0.00000000	          0.00000000	         -0.80522114	          0.00000000	
          2.53500000	         -0.00000000	         -0.00000000	          0.00000000	          0.00000000	          0.00000000	          0.00000000	          1.51702003	          4.07018078	          5.03346183	          0.23557024	          0.00000000	          0.05043408	          0.00000000	         -0.00000000	          0.00000000	          0.00000000	         -0.34983096	          0.00000000	
          2.54000000	         -0.00000000	         -0.00000000	          0.00000000	          0.00000000	          0.00000000	          0.00000000	          0.00454758	         -1.56738755	          3.18951196	          0.17196893	          0.00000000	          0.03699609	          0.00000000	         -0.00000000	          0.00000000	          0.00000000	         -0.03013067	          0.00000000	
          2.54500000	         -0.00000000	         -0.00000000	          0.00000000	          0.00000000	          0.00000000	          0.00000000	         -0.96573136	         -5.05868951	          1.75477080	          0.11758199	          0.00000000	          0.02545261	          0.00000000	         -0.00000000	          0.00000000	          0.00000000	          0.17726991	          0.00000000	
          2.55000000	         -0.00000000	         -0.00000000	          0.00000000	          0.00000000	          0.00000000	          0.00000000	         -1.51157478	         -6.89751265	          0.69591794	          0.07340538	          0.00000000	          0.01603702	          0.00000000	         -0.00000000	          0.00000000	          0.00000000	          0.29625198	          0.00000000	
          2.55500000	         -0.00000000	         -0.00000000	          0.00000000	          0.00000000	          0.00000000	          0.00000000	         -1.74206630	         -7.53120446	         -0.03814259	          0.03927030	          0.00000000	          0.00873064	          0.00000000	         -0.00000000	          0.00000000	          0.00000000	          0.34912292	          0.00000000	
          2.56000000	         -0.00000000	         -0.00000000	          0.00000000	          0.00000000	          0.00000000	          0.00000000	         -1.75209966	         -7.34195152	         -0.50586476	          0.01427432	          0.00000000	          0.00335472	          0.00000000	         -0.00000000	          0.00000000	          0.00000000	          0.35541664	          0.00000000	
          2.56500000	         -0.00000000	         -0.00000000	          0.00000000	          0.00000000	          0.00000000	          0.00000000	         -1.61996397	         -6.63992769	         -0.76579815	         -0.00288404	          0.00000000	         -0.00035808	          0.00000000	         -0.00000000	          0.00000000	          0.00000000	          0.33134351	          0.00000000	
          2.57000000	          0.00000000	         -0.00000000	          0.00000000	          0.00000000	          0.00000000	          0.00000000	         -1.40710834	         -5.66459542	         -0.87192302	         -0.01365927	          0.00000000	         -0.00271070	          0.00000000	         -0.00000000	          0.00000000	          0.00000000	          0.28970062	          0.00000000	
          2.57500000	          0.00000000	         -0.00000000	         -0.00000000	          0.00000000	          0.00000000	          0.00000000	         -1.15932290	         -4.59113271	         -0.87102027	         -0.01948893	          0.00000000	         -0.00400501	          0.00000000	         -0.00000000	          0.00000000	          0.00000000	          0.24008402	          0.00000000	
          2.58000000	          0.00000000	          0.00000000	         -0.00000000	          0.00000000	          0.00000000	          0.00000000	         -0.90873447	         -3.53963879	         -0.80155419	         -0.02168604	          0.00000000	         -0.00451828	          0.00000000	         -0.00000000	          0.00000000	          0.00000000	          0.18927812	          0.00000000	
          2.58500000	          0.00000000	          0.00000000	         -0.00000000	          0.00000000	          0.00000000	          0.00000000	         -0.67616706	         -2.58539348	         -0.69361369	         -0.02137990	          0.00000000	         -0.00449008	          0.00000000	         -0.00000000	          0.00000000	          0.00000000	          0.14172766	          0.00000000	
          2.59000000	          0.00000000	          0.00000000	         -0.00000000	          0.00000000	          0.00000000	          0.00000000	         -0.47354944	         -1.76898109	         -0.56953708	         -0.01949269	          0.00000000	         -0.00411689	          0.00000000	         -0.00000000	          0.00000000	          0.00000000	          0.10002553	          0.00000000	
          2.59500000	          0.00000000	          0.00000000	         -0.00000000	          0.00000000	          0.00000000	          0.00000000	         -0.30616265	         -1.10552662	         -0.44492566	         -0.01674082	          0.00000000	         -0.00355198	          0.00000000	          0.00000000	          0.00000000	          0.00000000	          0.06537196	          0.00000000	
          2.60000000	          0.00000000	          0.00000000	         -0.00000000	         -0.00000000	          0.00000000	          0.00000000	         -0.17460699	         -0.59263233	         -0.32982653	         -0.01365211	          0.00000000	         -0.00290879	          0.00000000	          0.00000000	          0.00000000	          0.00000000	          0.03797916	          0.00000000	
          2.60500000	          0.00000000	          0.00000000	         -0.00000000	         -0.00000000	          0.00000000	         -0.00000000	         -0.07643358	         -0.21685311	         -0.22993040	         -0.01059165	          0.00000000	         -0.00226627	          0.00000000	          0.00000000	          0.00000000	          0.00000000	          0.01740899	          0.00000000	
          2.61000000	          0.00000000	          0.00000000	         -0.00000000	         -0.00000000	          0.00000000	         -0.00000000	         -0.00743191	          0.04127729	         -0.14768423	         -0.00779137	          0.00000000	         -0.00167501	          0.00000000	          0.00000000	          0.00000000	          0.00000000	          0.00284090	          0.00000000	
          2.61500000	          0.00000000	          0.00000000	         -0.00000000	         -0.00000000	          0.00000000	         -0.00000000	          0.03740530	          0.20354677	         -0.08326132	         -0.00537941	          0.00000000	         -0.00116337	          0.00000000	          0.00000000	          0.00000000	          0.00000000	         -0.00672601	          0.00000000	
          2.62000000	          0.00000000	          0.00000000	         -0.00000000	         -0.00000000	          0.00000000	         -0.00000000	          0.06320023	          0.29150896	         -0.03536319	         -0.00340721	          0.00000000	         -0.00074325	          0.00000000	          0.00000000	          0.00000000	          0.00000000	         -0.01232914	          0.00000000	
          2.62500000	          0.00000000	          0.00000000	         -0.00000000	         -0.00000000	          0.00000000	         -0.00000000	          0.07474364	          0.32486258	         -0.00185024	         -0.00187301	          0.00000000	         -0.00041506	          0.00000000	          0.00000000	          0.00000000	          0.00000000	         -0.01494723	          0.00000000	
          2.63000000	          0.00000000	          0.00000000	         -0.00000000	         -0.00000000	          0.00000000	         -0.00000000	          0.07623489	          0.32055890	          0.01978729	         -0.00074103	          0.00000000	         -0.00017177	          0.00000000	          0.00000000	          0.00000000	          0.00000000	         -0.01544402	          0.00000000	
          2.63500000	          0.00000000	          0.00000000	         -0.00000000	         -0.00000000	          0.00000000	         -0.00000000	          0.07116194	          0.29244671	          0.03209808	          0.00004350	          0.00000000	         -0.00000217	          0.00000000	          0.00000000	          0.00000000	          0.00000000	         -0.01454117	          0.00000000	
          2.64000000	         -0.00000000	          0.00000000	         -0.00000000	         -0.00000000	          0.00000000	         -0.00000000	          0.06228071	          0.25128990	          0.03745419	          0.00054316	          0.00000000	          0.00010677	          0.00000000	          0.00000000	          0.00000000	          0.00000000	         -0.01281215	          0.00000000	
          2.64500000	         -0.00000000	          0.00000000	         -0.00000000	         -0.00000000	          0.00000000	         -0.00000000	          0.05165970	          0.20502285	          0.03792678	          0.00082063	          0.00000000	          0.00016818	          0.00000000	          0.00000000	          0.00000000	          0.00000000	         -0.01069008	          0.00000000	
          2.65000000	         -0.00000000	          0.00000000	          0.00000000	         -0.00000000	          0.00000000	         -0.00000000	          0.04076299	          0.15913785	          0.03523030	          0.00093366	          0.00000000	          0.00019426	          0.00000000	          0.00000000	          0.00000000	          0.00000000	         -0.00848378	          0.00000000	
